<mxfile host="app.diagrams.net" modified="2023-10-09T17:31:20.275Z" agent="Mozilla/5.0 (Windows NT 10.0; Win64; x64) AppleWebKit/537.36 (KHTML, like Gecko) Chrome/117.0.0.0 Safari/537.36" etag="Z83P7cGOs-EDF1fMNrvH" version="22.0.4" type="github">
  <diagram name="PÃ¡gina-1" id="wHF8x_YlI0Qe2Ux-_LmN">
    <mxGraphModel dx="970" dy="988" grid="1" gridSize="10" guides="1" tooltips="1" connect="1" arrows="1" fold="1" page="1" pageScale="1" pageWidth="827" pageHeight="1169" math="0" shadow="0">
      <root>
        <mxCell id="0" />
        <mxCell id="1" parent="0" />
        <mxCell id="kyEhsMo6bufMm350bxXb-1" value="" style="fontColor=#0066CC;verticalAlign=top;verticalLabelPosition=bottom;labelPosition=center;align=center;html=1;outlineConnect=0;fillColor=#CCCCCC;strokeColor=#6881B3;gradientColor=none;gradientDirection=north;strokeWidth=2;shape=mxgraph.networks.pc;" vertex="1" parent="1">
          <mxGeometry x="190" y="470" width="100" height="70" as="geometry" />
        </mxCell>
        <mxCell id="kyEhsMo6bufMm350bxXb-2" value="" style="image;sketch=0;aspect=fixed;html=1;points=[];align=center;fontSize=12;image=img/lib/mscae/VM_Linux.svg;" vertex="1" parent="1">
          <mxGeometry x="30" y="20" width="82.61" height="76" as="geometry" />
        </mxCell>
        <mxCell id="kyEhsMo6bufMm350bxXb-3" value="" style="image;html=1;image=img/lib/clip_art/networking/Firewall_128x128.png" vertex="1" parent="1">
          <mxGeometry x="510" y="320" width="80" height="80" as="geometry" />
        </mxCell>
        <mxCell id="kyEhsMo6bufMm350bxXb-4" value="" style="strokeWidth=2;outlineConnect=0;dashed=0;align=center;html=1;fontSize=8;shape=mxgraph.eip.messaging_bridge;verticalLabelPosition=bottom;verticalAlign=top;fillColor=#c0f5a9;" vertex="1" parent="1">
          <mxGeometry x="200" y="136" width="150" height="90" as="geometry" />
        </mxCell>
        <mxCell id="kyEhsMo6bufMm350bxXb-5" value="" style="endArrow=none;html=1;rounded=0;exitX=0;exitY=0;exitDx=0;exitDy=0;exitPerimeter=0;fillColor=#ffe6cc;strokeColor=#d79b00;" edge="1" parent="1" source="kyEhsMo6bufMm350bxXb-4">
          <mxGeometry width="50" height="50" relative="1" as="geometry">
            <mxPoint x="390" y="530" as="sourcePoint" />
            <mxPoint x="120" y="80" as="targetPoint" />
          </mxGeometry>
        </mxCell>
        <mxCell id="kyEhsMo6bufMm350bxXb-6" value="" style="endArrow=none;html=1;rounded=0;exitX=0;exitY=0;exitDx=0;exitDy=0;fillColor=#ffe6cc;strokeColor=#d79b00;" edge="1" parent="1" source="kyEhsMo6bufMm350bxXb-3">
          <mxGeometry width="50" height="50" relative="1" as="geometry">
            <mxPoint x="390" y="530" as="sourcePoint" />
            <mxPoint x="350" y="230" as="targetPoint" />
          </mxGeometry>
        </mxCell>
        <mxCell id="kyEhsMo6bufMm350bxXb-7" value="&lt;font style=&quot;font-size: 19px;&quot;&gt;Bridge&lt;/font&gt;" style="text;html=1;align=center;verticalAlign=middle;resizable=0;points=[];autosize=1;strokeColor=#d79b00;fillColor=#ffe6cc;" vertex="1" parent="1">
          <mxGeometry x="350" y="133" width="80" height="40" as="geometry" />
        </mxCell>
        <mxCell id="kyEhsMo6bufMm350bxXb-8" value="&lt;font style=&quot;font-size: 17px;&quot;&gt;Windows 10&lt;/font&gt;" style="text;html=1;align=center;verticalAlign=middle;resizable=0;points=[];autosize=1;strokeColor=#6c8ebf;fillColor=#dae8fc;" vertex="1" parent="1">
          <mxGeometry x="180" y="560" width="120" height="30" as="geometry" />
        </mxCell>
        <mxCell id="kyEhsMo6bufMm350bxXb-9" value="&lt;font style=&quot;font-size: 18px;&quot;&gt;192.168.1.101&lt;/font&gt;" style="text;html=1;align=center;verticalAlign=middle;resizable=0;points=[];autosize=1;strokeColor=#6c8ebf;fillColor=#dae8fc;" vertex="1" parent="1">
          <mxGeometry x="170" y="590" width="140" height="40" as="geometry" />
        </mxCell>
        <mxCell id="kyEhsMo6bufMm350bxXb-10" value="&lt;font style=&quot;font-size: 16px;&quot;&gt;Kali Linux&lt;/font&gt;" style="text;html=1;align=center;verticalAlign=middle;resizable=0;points=[];autosize=1;strokeColor=#d79b00;fillColor=#ffe6cc;" vertex="1" parent="1">
          <mxGeometry x="105" y="18" width="90" height="30" as="geometry" />
        </mxCell>
        <mxCell id="kyEhsMo6bufMm350bxXb-11" value="&lt;font style=&quot;font-size: 17px;&quot;&gt;NO IP&lt;/font&gt;" style="text;html=1;align=center;verticalAlign=middle;resizable=0;points=[];autosize=1;strokeColor=#d79b00;fillColor=#ffe6cc;" vertex="1" parent="1">
          <mxGeometry x="36.31" y="106" width="70" height="30" as="geometry" />
        </mxCell>
        <mxCell id="kyEhsMo6bufMm350bxXb-12" value="&lt;font style=&quot;font-size: 17px;&quot;&gt;No IP for Kali&lt;/font&gt;" style="text;html=1;align=center;verticalAlign=middle;resizable=0;points=[];autosize=1;strokeColor=#d79b00;fillColor=#ffe6cc;" vertex="1" parent="1">
          <mxGeometry x="480" y="278" width="120" height="30" as="geometry" />
        </mxCell>
        <mxCell id="kyEhsMo6bufMm350bxXb-13" value="" style="endArrow=none;html=1;rounded=0;entryX=0;entryY=1;entryDx=0;entryDy=0;fillColor=#dae8fc;strokeColor=#6c8ebf;" edge="1" parent="1" target="kyEhsMo6bufMm350bxXb-3">
          <mxGeometry width="50" height="50" relative="1" as="geometry">
            <mxPoint x="300" y="510" as="sourcePoint" />
            <mxPoint x="440" y="460" as="targetPoint" />
          </mxGeometry>
        </mxCell>
        <mxCell id="kyEhsMo6bufMm350bxXb-14" value="" style="endArrow=none;html=1;rounded=0;entryX=0.75;entryY=1;entryDx=0;entryDy=0;fillColor=#dae8fc;strokeColor=#6c8ebf;" edge="1" parent="1" target="kyEhsMo6bufMm350bxXb-3">
          <mxGeometry width="50" height="50" relative="1" as="geometry">
            <mxPoint x="640" y="520" as="sourcePoint" />
            <mxPoint x="440" y="460" as="targetPoint" />
          </mxGeometry>
        </mxCell>
        <mxCell id="kyEhsMo6bufMm350bxXb-15" value="" style="image;aspect=fixed;perimeter=ellipsePerimeter;html=1;align=center;shadow=0;dashed=0;spacingTop=3;image=img/lib/active_directory/internet_cloud.svg;" vertex="1" parent="1">
          <mxGeometry x="570" y="520" width="140" height="88.2" as="geometry" />
        </mxCell>
        <mxCell id="kyEhsMo6bufMm350bxXb-16" value="&lt;font style=&quot;font-size: 17px;&quot;&gt;Internet&lt;/font&gt;" style="text;html=1;align=center;verticalAlign=middle;resizable=0;points=[];autosize=1;strokeColor=#6c8ebf;fillColor=#dae8fc;" vertex="1" parent="1">
          <mxGeometry x="600" y="630" width="80" height="30" as="geometry" />
        </mxCell>
        <mxCell id="kyEhsMo6bufMm350bxXb-17" value="Span Port" style="text;html=1;align=center;verticalAlign=middle;resizable=0;points=[];autosize=1;strokeColor=#d79b00;fillColor=#ffe6cc;" vertex="1" parent="1">
          <mxGeometry x="450" y="320" width="80" height="30" as="geometry" />
        </mxCell>
      </root>
    </mxGraphModel>
  </diagram>
</mxfile>
